<svg width="326" height="242" viewBox="0 0 326 242" fill="none" xmlns="http://www.w3.org/2000/svg">
<path opacity="0.1" d="M189.647 33.9269C168.798 33.3883 148.94 28.3832 129.979 22.9071C111.017 17.4311 92.2358 11.352 71.8856 8.4495C58.7967 6.58223 43.8265 6.31778 33.2825 11.539C23.1316 16.5571 19.8521 25.2194 18.09 33.2819C16.7627 39.3352 15.9831 45.7046 19.617 51.3709C22.1426 55.3054 26.6205 58.611 29.7196 62.381C40.5019 75.4938 32.8798 91.6607 21.1987 104.464C15.7222 110.469 9.35974 116.196 5.12993 122.592C0.900113 128.987 -1.05533 136.307 2.64616 142.832C6.31221 149.282 15.0521 154.148 24.5201 157.563C43.7491 164.5 66.3994 166.484 88.5021 167.609C137.414 170.099 186.584 169.019 235.624 167.932C253.774 167.532 272.001 167.129 289.855 165.029C299.771 163.871 310.005 162.03 317.205 157.589C326.341 151.952 328.606 142.406 322.482 135.337C312.212 123.478 283.824 120.531 276.637 107.805C272.687 100.8 276.743 92.9991 282.487 86.5007C294.806 72.5655 315.453 60.3396 316.538 44.4081C317.286 33.469 307.36 22.5105 292.013 17.3343C275.928 11.9099 253.619 12.5904 241.758 21.572C229.532 30.8309 208.058 34.3913 189.647 33.9269Z" fill="#C93227"/>
<g opacity="0.8">
<path opacity="0.8" d="M303.114 57.6564C303.114 57.6564 299.481 56.1793 287.922 61.4876C276.363 66.796 274.92 66.1219 271.927 65.3092C268.934 64.4966 267.266 64.3063 264.057 59.8751C264.057 59.8751 261.802 47.5976 259.605 45.6852C257.408 43.7728 248.111 46.772 248.111 46.772C248.111 46.772 236.958 49.3391 234.819 34.4106C234.819 34.4106 236.326 23.1619 234.271 19.7079C234.271 19.7079 238.42 21.4978 245.263 18.6082C252.105 15.7186 257.582 21.7235 257.582 21.7235C257.582 21.7235 259.309 26.1966 259.128 28.8604C258.948 31.5243 260.04 32.5305 263.316 31.2405C263.316 31.2405 264.927 28.9572 262.649 25.1839C260.372 21.4107 258.758 18.5985 259.392 15.667C260.027 12.7355 261.847 8.67521 267.701 6.63702C273.554 4.59882 281.508 4.21828 285.325 2.64448C289.143 1.07069 290.064 0.0161133 290.064 0.0161133C290.064 0.0161133 287.716 2.37358 293.25 12.3582C298.785 22.3427 295.257 26.6803 295.257 26.6803C295.257 26.6803 292.313 33.7044 279.317 33.1303C279.317 33.1303 266.795 33.5883 273.622 38.903C273.622 38.903 277.993 38.0129 284.533 35.9328C291.072 33.8527 295.785 42.4376 296.958 48.4103C298.131 54.383 303.114 57.6564 303.114 57.6564Z" fill="#C93227"/>
<path opacity="0.8" d="M286.285 7.5755L286.353 7.55615C286.855 9.46212 281.26 17.1182 276.476 23.207L276.421 23.1651C283.167 14.577 286.685 9.03965 286.285 7.5755Z" fill="#444053"/>
<path opacity="0.8" d="M276.518 23.0393L276.547 23.1167C272.726 27.98 267.92 33.785 264.073 38.0839C263.706 38.4935 263.342 38.9224 262.994 39.3739L262.881 39.2868C263.235 38.845 263.599 38.4128 263.967 37.9968C267.813 33.6914 272.7 27.8994 276.518 23.0393Z" fill="#444053"/>
<path opacity="0.8" d="M262.975 39.1578L263.052 39.2868C256.052 48.0362 255.588 61.6199 255.572 61.7392L254.096 60.0493C254.112 59.9139 255.926 47.9653 262.975 39.1578Z" fill="#444053"/>
<path opacity="0.8" d="M294.999 52.9124C294.999 52.9124 286.746 48.6167 280.313 50.1582C273.879 51.6998 259.399 44.708 259.399 44.708C259.399 44.708 253.249 42.2086 252.012 39.3577C252.012 39.3577 247.795 34.8911 247.553 32.5853C247.312 30.2794 243.195 24.4615 240.527 24.2519" stroke="#444053" stroke-miterlimit="10"/>
<path opacity="0.8" d="M293.804 57.0468C293.804 57.0468 289.649 54.2443 290.132 50.9742" stroke="#444053" stroke-miterlimit="10"/>
<path opacity="0.8" d="M287.429 60.6685C287.429 60.6685 281.482 58.5077 280.886 50.026" stroke="#444053" stroke-miterlimit="10"/>
<path opacity="0.8" d="M277.835 62.8615C277.835 62.8615 272.153 58.1433 274.04 49.897" stroke="#444053" stroke-miterlimit="10"/>
<path opacity="0.8" d="M266.306 60.5556C266.306 60.5556 262.523 52.6125 265.89 47.446" stroke="#444053" stroke-miterlimit="10"/>
<path opacity="0.8" d="M295.096 47.675C295.096 47.675 290.795 49.0424 291.72 51.3064" stroke="#444053" stroke-miterlimit="10"/>
<path opacity="0.8" d="M289.906 39.8641C289.906 39.8641 284.153 41.6894 284.017 49.839" stroke="#444053" stroke-miterlimit="10"/>
<path opacity="0.8" d="M281.885 37.9839C281.885 37.9839 276.65 44.4532 277.02 50.3324" stroke="#444053" stroke-miterlimit="10"/>
<path opacity="0.8" d="M272.716 40.522C272.716 40.522 267.514 45.4981 268.177 48.2619" stroke="#444053" stroke-miterlimit="10"/>
<path opacity="0.8" d="M269.579 38.7644C269.579 38.7644 264.701 39.6383 264.022 38.0355" stroke="#444053" stroke-miterlimit="10"/>
<path opacity="0.8" d="M263.242 32.8691C263.242 32.8691 265.706 36.136 266.341 35.4039" stroke="#444053" stroke-miterlimit="10"/>
<path opacity="0.8" d="M287.667 30.8019C287.667 30.8019 275.374 31.6952 272.594 27.9865" stroke="#444053" stroke-miterlimit="10"/>
<path opacity="0.8" d="M260.655 16.4088C260.655 16.4088 266.425 28.8024 270.613 30.3826" stroke="#444053" stroke-miterlimit="10"/>
<path opacity="0.8" d="M266.711 10.5038C266.711 10.5038 270.255 21.9041 274.643 25.4645" stroke="#444053" stroke-miterlimit="10"/>
<path opacity="0.8" d="M292.841 21.3946C292.841 21.3946 283.499 25.4097 277.88 21.3462" stroke="#444053" stroke-width="0.75" stroke-miterlimit="10"/>
<path opacity="0.8" d="M275.036 8.07214C275.036 8.07214 277.172 16.4571 280.048 18.4792" stroke="#444053" stroke-width="0.75" stroke-miterlimit="10"/>
<path opacity="0.8" d="M291.43 11.9969C291.43 11.9969 286.176 13.9868 284.214 12.4613" stroke="#444053" stroke-width="0.75" stroke-miterlimit="10"/>
<path opacity="0.8" d="M258.742 35.6071C258.742 35.6071 258.742 42.9117 256.754 43.4309" stroke="#444053" stroke-miterlimit="10"/>
<path opacity="0.8" d="M242.499 45.0725C242.499 45.0725 250.391 45.7497 254.028 41.6733" stroke="#444053" stroke-miterlimit="10"/>
<path opacity="0.8" d="M256.706 26.9771C256.706 26.9771 254.799 34.3945 249.531 36.3811" stroke="#444053" stroke-miterlimit="10"/>
<path opacity="0.8" d="M237.766 37.268C237.766 37.268 243.352 39.203 248.156 34.2623" stroke="#444053" stroke-miterlimit="10"/>
<path opacity="0.8" d="M250.498 20.6077C250.498 20.6077 249.969 26.8996 246.551 29.844" stroke="#444053" stroke-miterlimit="10"/>
<path opacity="0.8" d="M237.979 27.6801C237.979 27.6801 242.615 27.7091 243.7 26.1998" stroke="#444053" stroke-miterlimit="10"/>
</g>
<path opacity="0.1" d="M85.374 242C124.16 242 155.602 239.762 155.602 237.001C155.602 234.241 124.16 232.003 85.374 232.003C46.5879 232.003 15.1455 234.241 15.1455 237.001C15.1455 239.762 46.5879 242 85.374 242Z" fill="#C93227"/>
<path d="M126.058 209.786C127.025 208.047 128.181 206.409 129.115 204.648C129.969 203.036 130.636 201.326 131.406 199.669C132.723 196.831 134.347 194.148 135.826 191.387C136.792 189.578 137.726 187.607 137.54 185.563C137.362 183.628 136.228 181.951 135.79 180.08C134.006 172.402 129.711 165.352 127.092 157.925C126.422 156.041 125.771 154.145 124.934 152.326C123.323 148.827 121.068 145.682 118.813 142.564C118 141.372 117.096 140.247 116.107 139.197C115.298 138.388 114.39 137.675 113.655 136.798C112.141 134.992 111.433 132.392 109.538 130.993C109.506 131.077 109.471 131.157 109.435 131.241C108.079 127.774 103.53 125.488 100.892 122.614C99.3559 120.859 97.9426 119 96.662 117.051L90.9181 108.74C89.9291 107.308 88.9208 105.838 88.5213 104.132C88.0317 102.074 88.4859 99.8812 88.0027 97.8236C87.6937 96.585 87.0915 95.4391 86.247 94.4825C86.3017 94.4664 86.3597 94.4438 86.4177 94.4309C87.513 94.1375 88.6727 94.0859 89.7584 93.8246C92.1262 93.2603 94.1847 91.7445 96.5428 91.1382C97.7477 90.8157 99.0331 90.7512 100.125 90.1707C100.656 89.8526 101.075 89.3765 101.323 88.8089C101.572 88.2413 101.637 87.6103 101.51 87.0038C100.747 82.9564 102.88 78.8542 102.519 74.7488C102.422 73.6136 102.132 72.5075 101.945 71.3819C101.51 68.7697 101.591 66.0929 101.746 63.442C102.481 62.2474 103.363 61.1498 104.371 60.1751C105.821 58.7754 107.551 57.5951 108.559 55.8439C109.438 54.2927 109.651 52.419 109.429 50.6452C109.271 49.3552 108.833 47.9975 107.818 47.2138C106.803 46.4302 105.347 46.3721 104.12 46.7817C103.949 46.8365 103.782 46.9042 103.617 46.9752C103.104 46.7182 102.544 46.5684 101.972 46.5352C101.399 46.5019 100.825 46.5858 100.286 46.7817C99.0621 47.188 98.0118 47.9975 97.0261 48.8392C96.4418 49.2979 95.9293 49.8414 95.5055 50.4517C94.8838 51.4192 94.7034 52.6125 94.4682 53.7509C93.9681 55.9485 93.2393 58.0877 92.2937 60.1332C92.1197 60.4944 91.6494 61.1426 91.2693 61.7618L90.5799 61.6199C90.2803 64.4933 87.877 66.6025 86.4145 69.0857C85.7025 70.2919 85.2032 71.6109 84.5621 72.859C83.8306 74.2176 83.014 75.5285 82.117 76.7838C81.2472 78.0738 80.3763 79.352 79.5044 80.6183C78.4116 82.2815 77.2286 83.8835 75.9608 85.4171C74.7785 85.3203 73.5962 85.2333 72.4171 85.2139C70.4381 85.1855 68.4615 85.3617 66.5186 85.7396C66.4053 85.0556 66.3354 84.3652 66.3092 83.6724C66.3092 83.6304 66.3092 83.5885 66.3092 83.5466C66.3092 83.3789 66.3285 83.1789 66.3511 82.9629C68.0254 81.8404 69.3881 80.3113 70.3119 78.5184C71.2356 76.7256 71.6903 74.7275 71.6333 72.7111C71.5764 70.6946 71.0097 68.7255 69.9862 66.9877C68.9627 65.25 67.5159 63.8004 65.7809 62.7744C65.8448 62.4119 65.8857 62.0457 65.9033 61.6779C65.9033 61.4619 65.9033 61.2426 65.9033 61.0329C65.9033 60.9233 65.9033 60.8136 65.8807 60.7104C65.8608 60.4929 65.8241 60.2773 65.7712 60.0654C65.7454 59.9622 65.7164 59.859 65.681 59.7429C65.6124 59.5406 65.5228 59.346 65.4136 59.1624C65.4069 59.1512 65.3993 59.1404 65.3911 59.1302C65.3492 59.0625 65.3073 58.9947 65.259 58.9302C65.2106 58.8657 65.2171 58.8786 65.1978 58.8528C65.1638 58.8057 65.1273 58.7604 65.0882 58.7174L65.0077 58.6335C64.9723 58.5948 64.9368 58.5561 64.8982 58.5207L64.808 58.44L64.6952 58.3401L64.5921 58.2627L64.4762 58.1756L64.3634 58.1014L64.2474 58.0272C64.2088 58.0014 64.1669 57.9789 64.125 57.9563L64.0058 57.8886L63.877 57.8241L63.7578 57.766L63.616 57.7047L63.5 57.6531L63.3454 57.5951L63.2359 57.5532L63.0684 57.4951L62.9685 57.4629L62.7849 57.4048L62.6979 57.379L62.4982 57.3242L62.4208 57.3016L62.2114 57.25L62.1502 57.2339L61.9183 57.1823H61.8796L61.5381 57.1081C60.1271 56.8179 58.7075 56.5674 57.2793 56.3567C56.1099 56.1825 54.9115 56.0342 53.7583 56.2954C52.1668 56.6502 50.8396 57.7273 49.3513 58.3949C47.5923 59.1882 45.6401 59.3979 43.7652 59.8332C41.8903 60.2686 39.9606 61.0136 38.7848 62.5519C37.8892 63.7258 37.5316 65.219 37.2642 66.6734C35.035 78.8123 37.4382 91.264 37.8924 103.603C38.0696 108.405 37.8538 113.539 35.1348 117.47L43.0532 117.261C43.4334 117.261 43.8167 117.238 44.2033 117.215C44.5899 117.193 44.9765 117.164 45.3566 117.119C46.3609 117.025 47.3364 116.732 48.227 116.258C48.6393 116.023 49.0158 115.729 49.3448 115.387C50.4208 114.278 50.9942 112.726 51.5193 111.243C51.6965 110.743 51.8737 110.237 52.0315 109.727C52.096 109.514 52.1572 109.301 52.2119 109.082L52.2377 108.979L52.3279 109.021C52.6501 109.627 53.0141 110.22 53.4007 110.795C54.7827 112.833 56.5352 114.574 58.2748 116.306C61.7314 119.741 65.2654 123.237 69.5983 125.442C71.0609 126.181 72.6426 126.803 73.7573 128.022C74.3049 128.613 74.7785 129.37 75.5548 129.574C76.0381 129.699 76.5696 129.574 77.0303 129.78C77.7068 130.064 77.9549 130.88 78.2673 131.551C78.5798 132.221 79.2853 132.905 79.9554 132.599C79.8298 133.222 79.8816 133.867 80.1049 134.462C80.3282 135.057 80.714 135.577 81.2182 135.962C81.5428 136.143 81.8224 136.394 82.0365 136.698C82.1396 136.975 82.1963 137.267 82.204 137.562C82.3417 138.386 82.776 139.13 83.4249 139.655C82.7968 140.697 83.2993 142.19 83.3154 143.489C83.3154 144.58 82.9578 145.631 82.713 146.692C82.001 149.804 82.3909 153.061 82.9707 156.199C83.2929 157.931 83.702 159.724 84.8295 161.069C85.1968 161.504 85.6349 161.882 86.0215 162.304C86.7594 163.136 87.3725 164.072 87.8416 165.081C88.8193 167.079 89.4853 169.215 89.8164 171.415C89.972 172.519 90.2867 173.594 90.7506 174.607C91.4561 176.149 90.8118 178.045 91.4432 179.619C91.7299 180.325 92.2583 180.928 92.429 181.667C92.6706 182.741 92.1069 183.815 91.9554 184.908C91.5882 187.469 93.4341 189.846 93.6016 192.426C93.6291 192.577 93.5967 192.733 93.5114 192.861C93.3858 193.003 93.1699 193 92.9992 193.08C92.6771 193.235 92.5901 193.67 92.487 194.032C92.3839 194.393 92.094 194.802 91.7364 194.693C86.4435 197.527 80.9637 200.146 75.6708 202.981L73.2547 204.271L60.3333 211.182C60.1764 211.26 60.0446 211.381 59.9529 211.53C59.8612 211.679 59.8133 211.852 59.8147 212.027C59.8147 212.182 59.834 212.35 59.8469 212.495C58.9416 212.72 58.0718 212.991 57.4533 213.104C57.1988 213.153 56.9443 213.201 56.693 213.256C56.7542 213.158 56.7937 213.048 56.809 212.933C56.8101 212.774 56.7524 212.621 56.6472 212.501C56.542 212.382 56.3965 212.307 56.2388 212.288C55.9232 212.257 55.6046 212.299 55.3078 212.411C54.5692 212.613 53.8148 212.752 53.0527 212.827C52.1475 212.914 51.2262 212.911 50.3499 213.149C49.4737 213.388 48.6103 213.92 48.256 214.762C48.0787 215.249 47.9998 215.766 48.024 216.284C48.0044 218.277 48.2404 220.265 48.7263 222.199C48.734 222.275 48.7592 222.349 48.8 222.415C48.8407 222.48 48.896 222.535 48.9615 222.576C49.0742 222.621 49.2095 222.576 49.3223 222.628C49.4215 222.688 49.4958 222.782 49.5317 222.892C50.0729 224.124 50.1985 225.498 50.3435 226.839C50.5582 228.828 50.8299 230.811 51.1585 232.789C51.3518 233.944 51.5902 235.15 52.3408 236.04C53.1655 237.008 54.4702 237.437 55.7298 237.608C58.3875 237.966 61.071 237.427 63.6933 236.876C64.183 236.772 64.7081 236.647 65.0367 236.266C65.277 235.962 65.3922 235.578 65.3588 235.192C65.2976 233.867 64.0928 232.935 62.9975 232.19L61.5027 231.154C61.3752 231.087 61.2741 230.978 61.2157 230.846C61.1573 230.714 61.1449 230.566 61.1806 230.426L61.2772 228.468H60.9873C61.3094 227.088 61.8281 225.762 62.8429 224.814C63.5419 224.169 64.4536 223.718 65.1849 223.131C66.1231 223.853 67.2596 224.27 68.4418 224.327C70.3747 221.721 73.0969 219.948 75.819 218.2C78.03 216.801 80.3152 215.525 82.6647 214.375C84.5675 213.433 86.5004 212.551 88.4634 211.727C91.2338 210.56 94.0559 209.518 96.8811 208.502C98.7657 207.825 100.666 207.157 102.403 206.158C106.913 203.549 110.099 198.34 109.49 193.125C108.723 186.546 110.363 179.69 110.254 173.066C110.221 171.131 110.15 169.196 109.564 167.342C109.701 167.438 109.829 167.546 109.947 167.664C111.12 168.761 111.404 170.502 112.525 171.753C113.398 172.737 114.725 173.366 115.253 174.566C115.656 175.485 115.598 176.726 116.439 177.255C116.677 177.407 116.961 177.471 117.199 177.62C117.484 177.823 117.724 178.083 117.905 178.384C118.797 179.658 119.721 181.022 119.818 182.576C119.86 183.192 119.802 183.905 120.253 184.321C120.382 184.44 120.546 184.528 120.614 184.689C120.756 185.011 120.382 185.353 120.317 185.711C120.224 186.208 120.714 186.585 121.016 187.001C121.269 187.348 121.405 187.766 121.405 188.196C121.405 188.625 121.269 189.044 121.016 189.391C118.375 192.825 117.898 197.453 115.588 201.127C114.789 202.394 113.9 203.594 113.127 204.877C110.75 208.818 109.548 213.346 108.382 217.806C108.88 218.674 109.555 219.428 110.363 220.019C109.927 221.52 109.174 222.911 108.156 224.098C107.897 224.388 107.653 224.693 107.428 225.011C107.239 224.771 106.992 224.585 106.71 224.469C106.286 226.32 106.07 228.213 106.066 230.113C106.066 231.364 106.236 232.793 107.251 233.515C107.656 233.771 108.102 233.955 108.569 234.06L110.779 234.705C111.167 234.854 111.589 234.896 112 234.824C112.26 234.75 112.492 234.589 112.76 234.537C113.05 234.507 113.344 234.546 113.617 234.65L115.527 235.208C116.173 235.38 116.804 235.604 117.415 235.876C117.959 236.137 118.462 236.476 118.997 236.766C119.886 237.216 120.809 237.595 121.757 237.901L125.05 239.036C125.967 239.4 126.926 239.649 127.904 239.778C128.581 239.836 129.267 239.778 129.934 239.894C130.443 239.981 130.935 240.165 131.448 240.217C132.298 240.242 133.133 239.993 133.832 239.507C134.104 239.353 134.34 239.14 134.521 238.885C135.004 238.13 134.589 237.134 134.118 236.372C133.245 234.96 132.153 233.638 130.713 232.825C130.13 232.502 129.499 232.264 128.896 231.967C127.182 231.129 125.891 229.729 124.27 228.771C124.064 228.624 123.812 228.553 123.559 228.57C123.306 228.587 123.067 228.691 122.882 228.865C121.535 227.991 120.079 227.136 119.338 225.714C119.008 225.028 118.79 224.293 118.694 223.537C119.451 223.718 120.214 223.859 120.984 223.985C122.237 219.122 123.607 214.172 126.058 209.786ZM95.1093 72.243C95.0449 72.6074 94.974 72.9686 94.8967 73.3298C94.2524 76.3581 93.331 79.7508 91.2242 82.005C90.5312 82.6658 89.7261 83.1977 88.8467 83.5756L88.6115 83.6917C90.1289 79.6347 92.545 75.8743 95.1093 72.243Z" fill="url(#paint0_linear_6_248)"/>
<path d="M98.2277 54.2798C98.4661 53.1543 98.6465 51.974 99.2682 51.0032C99.6933 50.3929 100.207 49.8494 100.792 49.3907C101.778 48.5555 102.831 47.7525 104.059 47.3461C105.286 46.9398 106.729 46.9946 107.76 47.775C108.791 48.5555 109.226 49.9003 109.387 51.1838C109.606 52.9479 109.387 54.8055 108.514 56.3438C107.515 58.0885 105.782 59.2463 104.326 60.646C103.271 61.6563 102.354 62.8014 101.597 64.0516C101.253 64.7032 100.836 65.3134 100.354 65.8704C100.109 66.1476 99.8033 66.3634 99.4604 66.5007C99.1174 66.6379 98.7471 66.6927 98.3791 66.6606C97.7574 66.5606 97.2516 66.1285 96.7684 65.7157C96.1724 65.1932 94.5681 64.2612 94.5133 63.4324C94.4747 62.7616 95.7278 61.2394 96.0339 60.6105C96.986 58.5836 97.7214 56.4616 98.2277 54.2798Z" fill="#FBBEBE"/>
<path opacity="0.1" d="M98.2277 54.2798C98.4661 53.1543 98.6465 51.974 99.2682 51.0032C99.6933 50.3929 100.207 49.8494 100.792 49.3907C101.778 48.5555 102.831 47.7525 104.059 47.3461C105.286 46.9398 106.729 46.9946 107.76 47.775C108.791 48.5555 109.226 49.9003 109.387 51.1838C109.606 52.9479 109.387 54.8055 108.514 56.3438C107.515 58.0885 105.782 59.2463 104.326 60.646C103.271 61.6563 102.354 62.8014 101.597 64.0516C101.253 64.7032 100.836 65.3134 100.354 65.8704C100.109 66.1476 99.8033 66.3634 99.4604 66.5007C99.1174 66.6379 98.7471 66.6927 98.3791 66.6606C97.7574 66.5606 97.2516 66.1285 96.7684 65.7157C96.1724 65.1932 94.5681 64.2612 94.5133 63.4324C94.4747 62.7616 95.7278 61.2394 96.0339 60.6105C96.986 58.5836 97.7214 56.4616 98.2277 54.2798Z" fill="black"/>
<path d="M64.4021 86.5136C66.9832 85.8265 69.6469 85.5009 72.3173 85.5461C76.7726 85.6106 81.36 86.691 85.6027 85.3236C86.698 84.9433 87.763 84.4808 88.7888 83.9401C89.6425 83.5144 90.5123 83.0758 91.1662 82.3792C93.2763 80.141 94.1848 76.7709 94.8452 73.762C95.5056 70.7531 95.6763 67.6635 95.847 64.5901C96.9456 65.1029 98.1021 65.6092 99.3198 65.506C100.538 65.4028 101.752 64.474 101.746 63.2485C101.565 66.0962 101.423 68.9793 101.903 71.7915C102.09 72.9074 102.38 74.0071 102.48 75.1358C102.841 79.2122 100.705 83.2854 101.469 87.307C101.595 87.9102 101.529 88.5379 101.28 89.1018C101.032 89.6658 100.613 90.1377 100.083 90.4513C98.988 91.0415 97.6994 91.1157 96.4946 91.4188C94.1332 92.0219 92.0715 93.5247 89.7004 94.0859C88.5955 94.3471 87.4454 94.4084 86.3565 94.689C84.7909 95.1018 83.3702 95.9983 81.7756 96.2821C80.5804 96.495 79.3498 96.3498 78.1417 96.453C77.0915 96.5401 76.0607 96.8175 75.0072 96.8433C72.4301 96.9077 69.9914 95.4468 68.2775 93.5086C66.5637 91.5704 65.4781 88.8614 64.4021 86.5136Z" fill="#C93227"/>
<path opacity="0.1" d="M64.4021 86.5136C66.9832 85.8265 69.6469 85.5009 72.3173 85.5461C76.7726 85.6106 81.36 86.691 85.6027 85.3236C86.698 84.9433 87.763 84.4808 88.7888 83.9401C89.6425 83.5144 90.5123 83.0758 91.1662 82.3792C93.2763 80.141 94.1848 76.7709 94.8452 73.762C95.5056 70.7531 95.6763 67.6635 95.847 64.5901C96.9456 65.1029 98.1021 65.6092 99.3198 65.506C100.538 65.4028 101.752 64.474 101.746 63.2485C101.565 66.0962 101.423 68.9793 101.903 71.7915C102.09 72.9074 102.38 74.0071 102.48 75.1358C102.841 79.2122 100.705 83.2854 101.469 87.307C101.595 87.9102 101.529 88.5379 101.28 89.1018C101.032 89.6658 100.613 90.1377 100.083 90.4513C98.988 91.0415 97.6994 91.1157 96.4946 91.4188C94.1332 92.0219 92.0715 93.5247 89.7004 94.0859C88.5955 94.3471 87.4454 94.4084 86.3565 94.689C84.7909 95.1018 83.3702 95.9983 81.7756 96.2821C80.5804 96.495 79.3498 96.3498 78.1417 96.453C77.0915 96.5401 76.0607 96.8175 75.0072 96.8433C72.4301 96.9077 69.9914 95.4468 68.2775 93.5086C66.5637 91.5704 65.4781 88.8614 64.4021 86.5136Z" fill="black"/>
<path d="M180.256 90.4771C184.643 90.4771 188.931 91.7792 192.578 94.2188C196.225 96.6584 199.067 100.126 200.745 104.183C202.424 108.24 202.863 112.704 202.007 117.01C201.151 121.317 199.038 125.273 195.937 128.377C192.835 131.482 188.883 133.596 184.581 134.453C180.279 135.309 175.82 134.869 171.768 133.188C167.715 131.507 164.252 128.661 161.816 125.01C159.379 121.358 158.079 117.066 158.08 112.675C158.081 106.787 160.417 101.141 164.576 96.9784C168.735 92.8156 174.375 90.4771 180.256 90.4771ZM180.256 84.9946C174.787 84.9946 169.44 86.6182 164.893 89.6603C160.345 92.7023 156.801 97.026 154.708 102.085C152.615 107.143 152.068 112.71 153.135 118.08C154.202 123.45 156.836 128.383 160.704 132.254C164.572 136.126 169.499 138.762 174.864 139.83C180.228 140.897 185.788 140.349 190.841 138.253C195.894 136.157 200.213 132.608 203.251 128.056C206.289 123.503 207.91 118.15 207.91 112.675C207.901 105.336 204.985 98.2994 199.801 93.1102C194.616 87.9209 187.588 85.0022 180.256 84.9946Z" fill="#3F3D56"/>
<path d="M182.644 78.5188H176.162V85.3493H182.644V78.5188Z" fill="#3F3D56"/>
<path d="M199.76 84.6315L194.205 81.2896L190.69 87.1444L196.246 90.4864L199.76 84.6315Z" fill="#3F3D56"/>
<path d="M211.154 98.1499L208.012 92.4747L202.044 95.7862L205.187 101.461L211.154 98.1499Z" fill="#3F3D56"/>
<path d="M207.927 132.689L211.362 127.186L205.575 123.566L202.141 129.069L207.927 132.689Z" fill="#3F3D56"/>
<path d="M155.328 101.459L158.471 95.7841L152.503 92.4726L149.361 98.1477L155.328 101.459Z" fill="#3F3D56"/>
<path d="M158.375 129.066L154.941 123.564L149.154 127.183L152.589 132.686L158.375 129.066Z" fill="#3F3D56"/>
<path d="M164.265 90.4858L169.821 87.1439L166.307 81.289L160.751 84.6309L164.265 90.4858Z" fill="#3F3D56"/>
<path d="M182.644 140H176.162V146.831H182.644V140Z" fill="#3F3D56"/>
<path d="M196.247 134.865L190.691 138.207L194.205 144.061L199.761 140.72L196.247 134.865Z" fill="#3F3D56"/>
<path d="M160.752 140.72L166.308 144.062L169.822 138.207L164.266 134.865L160.752 140.72Z" fill="#3F3D56"/>
<path d="M153.305 109.943H145.458V115.748H153.305V109.943Z" fill="#3F3D56"/>
<path d="M207.207 115.748H215.055V109.943H207.207V115.748Z" fill="#3F3D56"/>
<path d="M231.774 50.5162C236.161 50.5162 240.449 51.8184 244.096 54.258C247.743 56.6976 250.585 60.1651 252.263 64.2219C253.942 68.2788 254.381 72.7428 253.525 77.0494C252.669 81.3561 250.556 85.3119 247.455 88.4166C244.353 91.5213 240.401 93.6355 236.099 94.4917C231.797 95.348 227.338 94.9079 223.286 93.227C219.233 91.5462 215.77 88.7002 213.334 85.0489C210.897 81.3975 209.597 77.1049 209.598 72.7138C209.599 66.8264 211.935 61.1803 216.094 57.0176C220.253 52.8548 225.893 50.5162 231.774 50.5162ZM231.774 45.0338C226.305 45.0338 220.958 46.6574 216.411 49.6995C211.863 52.7415 208.319 57.0652 206.226 62.1239C204.133 67.1825 203.586 72.7489 204.653 78.119C205.72 83.4891 208.354 88.4218 212.222 92.2933C216.09 96.1647 221.017 98.8011 226.382 99.8689C231.746 100.937 237.306 100.388 242.359 98.2922C247.412 96.1964 251.731 92.6477 254.769 88.0948C257.807 83.5418 259.428 78.1892 259.428 72.7138C259.419 65.3747 256.503 58.3386 251.319 53.1494C246.134 47.9601 239.106 45.0414 231.774 45.0338Z" fill="#3F3D56"/>
<path d="M234.162 38.5612H227.68V45.3917H234.162V38.5612Z" fill="#3F3D56"/>
<path d="M251.281 44.6685L245.725 41.3265L242.211 47.1814L247.766 50.5234L251.281 44.6685Z" fill="#3F3D56"/>
<path d="M262.674 58.1878L259.531 52.5127L253.564 55.8242L256.706 61.4993L262.674 58.1878Z" fill="#3F3D56"/>
<path d="M259.444 92.7284L262.879 87.2257L257.092 83.6061L253.658 89.1088L259.444 92.7284Z" fill="#3F3D56"/>
<path d="M206.844 61.5022L209.987 55.8271L204.019 52.5156L200.877 58.1907L206.844 61.5022Z" fill="#3F3D56"/>
<path d="M209.892 89.1081L206.457 83.6053L200.671 87.225L204.106 92.7277L209.892 89.1081Z" fill="#3F3D56"/>
<path d="M215.783 50.5239L221.339 47.1819L217.825 41.327L212.269 44.669L215.783 50.5239Z" fill="#3F3D56"/>
<path d="M234.162 100.039H227.68V106.87H234.162V100.039Z" fill="#3F3D56"/>
<path d="M247.765 94.905L242.209 98.2469L245.724 104.102L251.279 100.76L247.765 94.905Z" fill="#3F3D56"/>
<path d="M212.268 100.758L217.824 104.1L221.338 98.2451L215.782 94.9032L212.268 100.758Z" fill="#3F3D56"/>
<path d="M204.82 69.9823H196.973V75.7873H204.82V69.9823Z" fill="#3F3D56"/>
<path d="M258.729 75.7873H266.576V69.9823H258.729V75.7873Z" fill="#3F3D56"/>
<path d="M128.726 48.807C128.986 48.807 129.247 48.807 129.508 48.807C135.321 49.0055 140.823 51.4819 144.829 55.7027C148.835 59.9235 151.025 65.5508 150.926 71.3723C150.827 77.1938 148.448 82.7434 144.301 86.8254C140.154 90.9074 134.57 93.1952 128.755 93.1957C128.494 93.1957 128.233 93.1957 127.968 93.1957C122.156 92.9973 116.653 90.5206 112.647 86.2995C108.641 82.0783 106.452 76.4506 106.551 70.6288C106.65 64.8071 109.03 59.2574 113.178 55.1756C117.326 51.0939 122.909 48.8067 128.726 48.807ZM128.726 43.3245C121.473 43.3236 114.51 46.1752 109.338 51.2647C104.165 56.3542 101.197 63.2742 101.073 70.5337C100.949 77.7931 103.678 84.8109 108.674 90.0748C113.669 95.3386 120.53 98.4272 127.778 98.675C128.101 98.675 128.423 98.6911 128.745 98.6911C135.997 98.6912 142.959 95.839 148.131 90.7493C153.303 85.6595 156.27 78.7395 156.394 71.4803C156.518 64.2211 153.788 57.2038 148.793 51.9403C143.798 46.6768 136.937 43.5884 129.689 43.3407C129.367 43.3407 129.044 43.3245 128.722 43.3245H128.726Z" fill="#3F3D56"/>
<path d="M132.305 36.9609L125.828 36.7355L125.591 43.562L132.068 43.7873L132.305 36.9609Z" fill="#3F3D56"/>
<path d="M149.197 43.6599L143.761 40.1268L140.046 45.856L145.482 49.3891L149.197 43.6599Z" fill="#3F3D56"/>
<path d="M160.117 57.5658L157.174 51.7849L151.095 54.8869L154.038 60.6678L160.117 57.5658Z" fill="#3F3D56"/>
<path d="M155.698 91.9626L159.322 86.5826L153.664 82.764L150.041 88.144L155.698 91.9626Z" fill="#3F3D56"/>
<path d="M104.209 58.9301L107.547 53.3677L101.698 49.8507L98.3602 55.4132L104.209 58.9301Z" fill="#3F3D56"/>
<path d="M105.845 87.1619L102.604 81.5168L96.6678 84.932L99.9087 90.5772L105.845 87.1619Z" fill="#3F3D56"/>
<path d="M113.529 48.2692L119.198 45.1224L115.889 39.1489L110.22 42.2957L113.529 48.2692Z" fill="#3F3D56"/>
<path d="M130.175 98.3987L123.698 98.1733L123.461 105L129.938 105.225L130.175 98.3987Z" fill="#3F3D56"/>
<path d="M143.952 93.7445L138.284 96.8912L141.593 102.865L147.261 99.718L143.952 93.7445Z" fill="#3F3D56"/>
<path d="M108.279 98.355L113.716 101.888L117.431 96.1588L111.994 92.6258L108.279 98.355Z" fill="#3F3D56"/>
<path d="M101.897 67.3426L94.0541 67.0698L93.8528 72.8713L101.696 73.1441L101.897 67.3426Z" fill="#3F3D56"/>
<path d="M155.572 75.0091L163.415 75.2819L163.617 69.4804L155.774 69.2076L155.572 75.0091Z" fill="#3F3D56"/>
<path d="M57.3148 212.562C56.5167 212.66 55.7428 212.901 55.0307 213.275C54.0643 213.865 53.4683 214.907 53.0431 215.958C51.9768 218.596 51.7545 221.492 51.7094 224.343C51.6707 226.639 51.748 228.99 52.5695 231.132C52.7948 231.81 53.1857 232.42 53.7067 232.909C54.165 233.27 54.6958 233.527 55.2627 233.663C56.4868 233.986 57.9075 233.986 58.9094 233.212C60.024 232.338 60.3043 230.8 60.5395 229.403C60.8616 227.52 61.3094 225.533 62.7075 224.221C63.7449 223.253 65.23 222.769 65.9838 221.57C66.8826 220.144 66.409 218.283 65.8356 216.697C65.3363 215.323 64.605 212.533 63.1682 211.83C61.7314 211.127 58.8095 212.291 57.3148 212.562Z" fill="#FBBEBE"/>
<path d="M110.299 219.319C109.864 220.857 109.094 222.279 108.044 223.482C107.399 224.217 106.61 225.111 106.948 226.023C107.086 226.332 107.291 226.607 107.547 226.826C112.27 231.454 118.877 233.705 125.433 234.524C125.539 234.553 125.65 234.553 125.755 234.524C125.949 234.437 125.994 234.202 126.019 233.986C126.124 233.302 126.124 232.606 126.019 231.922C125.697 230.309 124.296 229.19 122.924 228.307C121.551 227.423 120.05 226.565 119.283 225.124C118.317 223.331 118.732 220.996 117.595 219.319C116.674 217.955 114.963 217.384 113.34 217.116C112.776 217.029 111.578 216.41 111.085 216.697C110.582 216.987 110.469 218.758 110.299 219.319Z" fill="#FBBEBE"/>
<path d="M56.6705 212.395C56.6715 212.236 56.6139 212.082 56.5087 211.963C56.4034 211.844 56.258 211.768 56.1003 211.75C55.7849 211.717 55.4663 211.758 55.1693 211.869C54.4305 212.07 53.6762 212.208 52.9142 212.282C52.009 212.369 51.0844 212.366 50.2049 212.604C49.3255 212.843 48.4653 213.368 48.1078 214.217C47.9338 214.701 47.8551 215.215 47.8758 215.729C47.8576 217.709 48.0936 219.683 48.5781 221.602C48.5866 221.679 48.6125 221.753 48.6538 221.818C48.6951 221.883 48.7507 221.939 48.8165 221.979C48.9292 222.024 49.0645 221.979 49.1773 222.031C49.2763 222.09 49.3507 222.183 49.3867 222.292C49.9311 223.518 50.0568 224.872 50.2017 226.214C50.4165 228.189 50.6882 230.159 51.0168 232.122C51.2101 233.267 51.4484 234.47 52.2023 235.347C53.027 236.314 54.3349 236.73 55.5945 236.901C58.2555 237.256 60.9422 236.721 63.5709 236.172C64.0721 236.122 64.5435 235.911 64.9143 235.569C65.1544 235.268 65.2698 234.886 65.2364 234.502C65.1752 233.186 63.9672 232.244 62.8719 231.522L61.3642 230.506C61.259 230.448 61.1686 230.366 61.1 230.267C61.0286 230.117 61.0028 229.949 61.0259 229.784L61.1226 227.849C60.1211 227.865 59.1427 228.152 58.2917 228.681C57.4408 229.21 56.749 229.96 56.2903 230.851C56.081 231.267 55.8844 231.754 55.4495 231.915C54.9115 232.119 54.3123 231.664 54.1319 231.119C54.0065 230.556 54.0231 229.971 54.1803 229.416C55.063 224.682 54.8568 219.815 55.3948 215.029C55.428 214.492 55.5929 213.972 55.8748 213.514C56.1357 213.152 56.6222 212.836 56.6705 212.395Z" fill="#3F3D56"/>
<path d="M122.466 230.751C122.688 231.119 123.033 231.396 123.239 231.777C123.446 232.157 123.442 232.712 123.072 232.928C122.853 233.025 122.61 233.049 122.376 232.999C117.646 232.411 113.206 230.401 109.641 227.233C109.05 226.732 108.526 226.156 108.082 225.52C107.667 224.875 107.316 224.117 106.607 223.853C106.183 225.691 105.967 227.571 105.963 229.458C105.963 230.7 106.133 232.119 107.148 232.838C107.555 233.091 108.001 233.273 108.469 233.376L110.682 234.002C111.072 234.15 111.495 234.191 111.906 234.121C112.167 234.05 112.399 233.886 112.666 233.838C112.958 233.807 113.252 233.844 113.527 233.947L115.437 234.505C116.083 234.67 116.716 234.885 117.328 235.15C117.872 235.408 118.378 235.747 118.91 236.034C119.801 236.481 120.726 236.858 121.677 237.159L125.04 238.327C125.959 238.69 126.92 238.937 127.901 239.062C128.577 239.12 129.264 239.062 129.934 239.178C130.443 239.265 130.936 239.449 131.451 239.501C132.3 239.524 133.135 239.277 133.835 238.794C134.108 238.642 134.344 238.432 134.527 238.178C135.011 237.427 134.595 236.437 134.122 235.679C133.249 234.279 132.156 232.967 130.713 232.167C130.127 231.844 129.496 231.606 128.893 231.312C127.179 230.48 125.881 229.09 124.261 228.139C122.73 227.249 121.745 229.568 122.466 230.751Z" fill="#3F3D56"/>
<path d="M75.2295 95.2017C73.4528 96.4237 71.4172 97.2163 69.2826 97.5173C68.1661 97.6564 67.0412 97.7168 65.9162 97.6979C61.2252 97.6922 56.5425 97.3007 51.9156 96.5272C53.7583 94.4954 55.6203 92.3347 56.3161 89.6709C56.6609 88.2657 56.732 86.8072 56.5255 85.3752C56.2465 83.5379 55.8089 81.7284 55.2176 79.9669C57.1911 80.0728 59.17 80.0221 61.1355 79.8153C62.2566 79.7024 65.0013 78.6801 65.9677 79.4541C66.873 80.1733 66.19 82.7178 66.1739 83.8917C66.1739 83.9336 66.1739 83.9755 66.1739 84.0175C66.2246 85.7994 66.6081 87.5561 67.3046 89.1968C68.7221 92.3702 71.7535 94.976 75.2295 95.2017Z" fill="#FBBEBE"/>
<path opacity="0.1" d="M66.1867 83.8756C64.7749 84.7989 63.1819 85.409 61.515 85.6649C59.848 85.9208 58.1456 85.8165 56.5223 85.3591C56.2432 83.5218 55.8056 81.7123 55.2144 79.9507C57.1879 80.0567 59.1667 80.006 61.1322 79.7992C62.2533 79.6863 64.998 78.664 65.9645 79.438C66.8858 80.1571 66.2029 82.7017 66.1867 83.8756Z" fill="black"/>
<path d="M59.7309 85.2494C66.2427 85.2494 71.5215 79.9648 71.5215 73.4459C71.5215 66.9271 66.2427 61.6425 59.7309 61.6425C53.2191 61.6425 47.9402 66.9271 47.9402 73.4459C47.9402 79.9648 53.2191 85.2494 59.7309 85.2494Z" fill="#FBBEBE"/>
<path d="M109.757 133.173C109.764 134.126 109.522 135.064 109.056 135.894C108.59 136.725 107.916 137.42 107.1 137.91C106.188 138.389 105.211 138.732 104.2 138.926C98.8076 140.216 93.2827 141.277 87.745 140.961C86.5466 140.893 85.3288 140.751 84.2529 140.226C83.1769 139.7 82.2588 138.716 82.0977 137.53C82.0905 137.236 82.0327 136.946 81.927 136.672C81.7135 136.369 81.4336 136.12 81.1087 135.943C80.6106 135.56 80.2299 135.045 80.0101 134.456C79.7903 133.867 79.7401 133.228 79.8652 132.612C79.1919 132.912 78.4896 132.234 78.1739 131.567C77.8582 130.899 77.6102 130.093 76.9336 129.812C76.473 129.616 75.9414 129.732 75.455 129.606C74.6786 129.406 74.205 128.638 73.6574 128.064C72.5395 126.868 70.9546 126.249 69.492 125.513C65.1527 123.324 61.6155 119.854 58.1524 116.441C56.4095 114.723 54.6538 112.991 53.2718 110.959C52.882 110.388 52.5309 109.801 52.1991 109.198C51.1513 107.187 50.2429 105.106 49.4801 102.971C49.042 101.829 48.5974 100.623 48.7778 99.4232C48.7939 99.3136 48.8165 99.2039 48.8423 99.1007C49.0667 98.3212 49.429 97.5883 49.9118 96.9368C51.1102 95.1727 52.6823 93.5021 54.744 92.9603C56.8058 92.4185 58.8643 93.0732 60.9583 93.5183C61.6536 93.6732 62.3585 93.7809 63.0684 93.8408C65.288 93.9988 67.485 93.4022 69.6305 92.8088L71.9693 92.1638C73.142 91.8413 73.7283 90.4223 74.9138 90.174C75.4434 90.0977 75.9828 90.125 76.502 90.2546C78.9084 90.7125 81.3342 91.3027 83.4507 92.5282C83.9219 92.802 84.373 93.1092 84.8005 93.4473C86.3082 94.6406 87.5001 96.2305 87.9383 98.0881C88.4215 100.13 87.9673 102.31 88.4569 104.351C88.8564 106.038 89.8679 107.508 90.8601 108.93L96.6169 117.161C97.9019 119.097 99.3172 120.944 100.853 122.688C103.939 126.052 109.68 128.596 109.757 133.173Z" fill="#C93227"/>
<path d="M94.3845 54.2798C94.6229 53.1543 94.8001 51.974 95.4218 51.0032C95.8469 50.3929 96.3604 49.8494 96.9456 49.3907C97.9346 48.5555 98.9848 47.7525 100.212 47.3461C101.44 46.9398 102.883 46.9946 103.914 47.775C104.945 48.5555 105.379 49.9003 105.541 51.1838C105.76 52.9479 105.541 54.8055 104.667 56.3438C103.669 58.0885 101.936 59.2463 100.48 60.646C99.4257 61.6573 98.5084 62.8022 97.7509 64.0516C97.4068 64.7032 96.9896 65.3134 96.5075 65.8704C96.2629 66.1476 95.9569 66.3634 95.6139 66.5007C95.271 66.6379 94.9006 66.6927 94.5327 66.6606C93.9142 66.5606 93.4052 66.1285 92.9219 65.7157C92.326 65.1932 90.7184 64.2612 90.6669 63.4324C90.6282 62.7616 91.8814 61.2394 92.1874 60.6105C93.1392 58.5831 93.8756 56.4612 94.3845 54.2798Z" fill="#FBBEBE"/>
<path d="M135.822 191.006C134.341 193.744 132.717 196.412 131.396 199.23C130.626 200.878 129.959 202.574 129.102 204.177C128.168 205.925 127.018 207.551 126.042 209.279C123.584 213.636 122.215 218.551 120.949 223.392C117.407 222.861 114 221.657 110.911 219.844C110.701 219.722 110.502 219.593 110.308 219.454C109.482 218.861 108.791 218.1 108.282 217.219C109.451 212.791 110.653 208.289 113.034 204.377C113.81 203.087 114.699 201.91 115.498 200.652C117.814 197.008 118.291 192.409 120.936 188.997C121.189 188.653 121.325 188.237 121.325 187.81C121.325 187.383 121.189 186.968 120.936 186.624C120.63 186.227 120.143 185.85 120.234 185.359C120.301 185.001 120.675 184.679 120.53 184.344C120.462 184.182 120.298 184.095 120.169 183.979C119.718 183.563 119.776 182.854 119.738 182.244C119.638 180.699 118.713 179.342 117.805 178.081C117.623 177.782 117.383 177.523 117.099 177.32C116.861 177.174 116.577 177.11 116.339 176.962C115.495 176.433 115.556 175.201 115.15 174.288C114.622 173.085 113.291 172.472 112.418 171.495C111.307 170.254 111.023 168.522 109.841 167.435C109.722 167.318 109.594 167.21 109.458 167.112C110.044 168.935 110.102 170.879 110.144 172.798C110.257 179.374 108.614 186.182 109.384 192.716C109.989 197.898 106.806 203.071 102.28 205.661C100.541 206.654 98.64 207.318 96.7522 207.992C93.9205 208.995 91.0985 210.031 88.3216 211.192C86.3586 212.004 84.4257 212.88 82.5229 213.82C80.1706 214.963 77.8812 216.231 75.6644 217.619C72.939 219.354 70.2136 221.118 68.2775 223.708C66.4058 223.656 64.692 222.531 63.5065 221.079C62.321 219.628 61.5736 217.854 60.8938 216.126C60.2914 214.626 59.6987 213.078 59.6536 211.463C59.6616 211.289 59.7185 211.121 59.8177 210.978C59.9169 210.836 60.0543 210.724 60.2141 210.656L73.1548 203.79L75.5742 202.5C80.8735 199.685 86.3629 197.082 91.6623 194.27C92.0198 194.377 92.3066 193.97 92.4129 193.625C92.5192 193.28 92.5933 192.835 92.9283 192.68C93.0958 192.6 93.3149 192.603 93.4405 192.461C93.5224 192.334 93.5545 192.181 93.5307 192.032C93.36 189.452 91.5108 187.107 91.8813 184.563C92.0392 183.479 92.5965 182.412 92.3549 181.338C92.1841 180.599 91.6558 180.003 91.3691 179.303C90.7248 177.739 91.3691 175.855 90.6733 174.324C90.2109 173.316 89.8962 172.247 89.739 171.15C89.4058 168.965 88.7386 166.844 87.761 164.861C87.2905 163.859 86.6775 162.93 85.9409 162.104C85.5511 161.685 85.113 161.311 84.7425 160.875C83.6182 159.54 83.2026 157.76 82.8837 156.038C82.3038 152.919 81.9173 149.685 82.626 146.595C82.8708 145.541 83.2445 144.496 83.2284 143.415C83.2123 141.987 82.5841 140.319 83.5763 139.287C83.9873 138.918 84.4867 138.661 85.026 138.542C87.3068 137.862 89.681 137.552 92.0424 137.252L102.85 135.837C104.088 135.672 105.354 135.514 106.446 134.898C107.911 134.089 108.884 132.589 109.48 131.028C111.378 132.415 112.086 134.998 113.601 136.788C114.338 137.662 115.25 138.368 116.059 139.171C117.047 140.214 117.953 141.332 118.768 142.515C121.023 145.615 123.278 148.737 124.889 152.213C125.729 154.019 126.38 155.902 127.05 157.776C129.689 165.152 133.989 172.153 135.774 179.777C136.212 181.641 137.349 183.324 137.527 185.23C137.726 187.253 136.792 189.207 135.822 191.006Z" fill="#3F3D56"/>
<path opacity="0.1" d="M79.2209 129.751C78.9561 130.241 78.8187 130.79 78.8215 131.347C79.0631 130.154 80.7028 129.493 80.8091 128.313C80.8574 127.768 80.7576 127.793 80.4225 128.08C79.9135 128.522 79.6912 129.283 79.2209 129.751Z" fill="black"/>
<path opacity="0.1" d="M84.2174 133.376C83.8712 133.669 83.6126 134.051 83.47 134.482C83.1912 135.089 83.1375 135.775 83.3186 136.417C83.5602 136.304 83.6408 136.008 83.7149 135.75C83.8335 135.348 84.0058 134.964 84.2271 134.608C84.4204 134.285 85.3127 133.566 85.3095 133.228C85.2998 132.708 84.4558 133.192 84.2174 133.376Z" fill="black"/>
<path opacity="0.1" d="M84.7941 93.4247C84.0363 94.0775 83.201 94.6343 82.3071 95.0824C79.9715 96.2659 77.3847 96.8916 75.033 98.0397C73.8728 98.6348 72.7458 99.2926 71.6568 100.01L64.6662 104.445C64.1046 104.767 63.587 105.16 63.1263 105.615C62.2855 106.512 62.2888 108.089 61.5156 109.05C60.7424 110.011 59.4087 110.553 58.1234 110.617C56.8358 110.625 55.5569 110.406 54.3446 109.972C53.6104 109.752 52.8897 109.49 52.1862 109.185C51.4504 108.873 50.7541 108.474 50.1115 107.998C48.8648 107.057 47.8565 105.686 47.6696 104.128C47.5856 103.06 47.7272 101.985 48.0852 100.974C48.2787 100.317 48.5277 99.6772 48.8294 99.062C49.0012 98.712 49.1994 98.3757 49.4221 98.0558C51.0329 95.779 53.8581 94.7115 56.5932 94.1858C58.0299 93.9052 59.4925 93.7343 60.9454 93.4892C61.6407 93.6441 62.3457 93.7519 63.0555 93.8117C65.2751 93.9697 67.4721 93.3731 69.6176 92.7797L71.9564 92.1347C73.1291 91.8122 73.7154 90.3932 74.9009 90.1449C75.4305 90.0686 75.9699 90.096 76.4891 90.2255C78.8955 90.6835 81.3213 91.2736 83.4378 92.4991C83.9114 92.7748 84.3647 93.0841 84.7941 93.4247Z" fill="black"/>
<path d="M90.4961 62.0972C90.1965 64.9513 87.7901 67.0475 86.3082 69.5146C85.5962 70.7111 85.0969 72.0237 84.4558 73.2621C83.7212 74.6123 82.9035 75.9155 82.0075 77.1643L79.3884 80.9698C77.8486 83.2079 76.2926 85.4654 74.3242 87.3391C70.8934 87.9229 68.0166 90.4738 64.7629 91.7122C62.1599 92.7023 59.3218 92.8378 56.59 93.3699C53.8581 93.902 51.0264 94.9824 49.4221 97.2399C48.8248 98.1302 48.3724 99.1099 48.082 100.142C47.7219 101.151 47.5814 102.225 47.6697 103.293C47.8662 104.848 48.8616 106.215 50.1083 107.163C51.355 108.111 52.8466 108.672 54.3414 109.137C55.554 109.57 56.8327 109.788 58.1202 109.782C59.4088 109.717 60.7167 109.221 61.5156 108.214C62.3145 107.208 62.2759 105.676 63.1264 104.78C63.5882 104.325 64.1068 103.931 64.6694 103.609L71.6601 99.1749C72.7482 98.4618 73.8742 97.8084 75.033 97.2173C77.3847 96.066 79.9715 95.4435 82.3071 94.26C84.6427 93.0764 86.8172 91.1221 87.2843 88.5421C88.7082 80.615 94.1879 73.9329 98.8816 67.3861C98.727 67.3539 98.7753 67.0024 98.7174 66.854C98.1182 65.2996 96.7845 64.1289 95.2832 63.3904C93.782 62.6519 92.1069 62.4455 90.4961 62.0972Z" fill="#C93227"/>
<path d="M65.7808 62.1552C65.868 61.2955 65.6987 60.4291 65.2944 59.6656C64.518 58.3756 62.8912 57.9208 61.4286 57.6177C60.0133 57.3274 58.5916 57.078 57.1634 56.8695C55.9907 56.6986 54.7891 56.547 53.6358 56.8114C52.0251 57.163 50.7139 58.2304 49.2224 58.8948C47.4602 59.6817 45.508 59.8881 43.6267 60.3235C41.7453 60.7588 39.8189 61.4974 38.6398 63.026C37.7442 64.187 37.3866 65.6705 37.1193 67.1153C34.8868 79.1735 37.29 91.5413 37.7474 103.796C37.9246 108.566 37.7088 113.665 34.9866 117.583L42.9147 117.374C44.9443 117.322 47.1252 117.215 48.7134 115.961C50.118 114.858 50.7816 113.081 51.384 111.398C51.8576 110.072 52.3344 108.721 52.3956 107.315C52.5212 104.435 50.8879 101.607 51.4291 98.7718C51.8254 96.6562 53.362 94.9469 55.0082 93.557C56.6544 92.167 58.4842 90.977 59.8147 89.2742C62.1921 86.2653 62.6463 82.1534 62.35 78.3318C62.1728 76.0582 61.7669 73.7846 61.9634 71.5109C62.1116 69.8114 62.6496 68.057 63.761 66.7315C65.0109 65.2287 65.6713 64.287 65.7808 62.1552Z" fill="#3F3D56"/>
<path opacity="0.1" d="M65.2944 59.6655C64.5309 58.3949 62.9459 57.9369 61.493 57.6338C62.2654 57.9089 62.9263 58.43 63.3744 59.1173C63.7802 59.8803 63.9496 60.7471 63.8608 61.607C63.7513 63.7355 63.0909 64.6772 61.8281 66.1832C60.7167 67.5087 60.1787 69.2599 60.0305 70.9627C59.834 73.2363 60.2399 75.5099 60.4171 77.7835C60.7134 81.6051 60.2592 85.717 57.885 88.7259C56.5513 90.4158 54.7215 91.6284 53.0785 93.0087C51.4356 94.389 49.8925 96.1079 49.4962 98.2235C48.9647 101.058 50.598 103.887 50.4627 106.766C50.4015 108.173 49.9215 109.524 49.4479 110.849C48.8487 112.533 48.1818 114.307 46.7773 115.409C45.1665 116.664 42.9985 116.774 40.9786 116.825L35.3635 116.974C35.2379 117.18 35.109 117.386 34.9705 117.583L42.8986 117.373C44.9281 117.322 47.1091 117.215 48.6973 115.961C50.1019 114.858 50.7655 113.081 51.3679 111.398C51.8415 110.072 52.3182 108.721 52.3794 107.315C52.5051 104.435 50.8718 101.607 51.413 98.7717C51.8092 96.6562 53.3459 94.9469 54.9921 93.5569C56.6383 92.167 58.4681 90.9769 59.7985 89.2741C62.176 86.2652 62.6302 82.1534 62.3338 78.3318C62.1567 76.0581 61.7508 73.7845 61.9473 71.5109C62.0955 69.8113 62.6334 68.057 63.7449 66.7315C65.0077 65.2286 65.6777 64.2869 65.7776 62.1552C65.8658 61.2958 65.6976 60.4294 65.2944 59.6655Z" fill="black"/>
<path opacity="0.1" d="M124.86 183.947L110.308 219.47C109.482 218.878 108.791 218.116 108.282 217.235C109.451 212.807 110.653 208.305 113.034 204.393C113.81 203.103 114.699 201.926 115.498 200.669C117.814 197.024 118.291 192.425 120.936 189.013C121.189 188.669 121.325 188.254 121.325 187.827C121.325 187.4 121.189 186.984 120.936 186.64C120.63 186.243 120.143 185.866 120.234 185.376C120.301 185.018 120.675 184.695 120.53 184.36C120.462 184.199 120.298 184.111 120.169 183.995C119.718 183.579 119.776 182.87 119.738 182.26C119.638 180.716 118.713 179.358 117.805 178.097C117.623 177.798 117.383 177.539 117.099 177.336C116.861 177.191 116.577 177.126 116.339 176.978C115.495 176.449 115.556 175.217 115.15 174.304C114.622 173.101 113.291 172.489 112.418 171.511C111.307 170.27 111.023 168.538 109.841 167.451L109.741 167.2L110.875 160.346L124.86 183.947Z" fill="black"/>
<defs>
<linearGradient id="paint0_linear_6_248" x1="86.3404" y1="240.23" x2="86.3404" y2="46.5043" gradientUnits="userSpaceOnUse">
<stop stop-color="#808080" stop-opacity="0.25"/>
<stop offset="0.54" stop-color="#808080" stop-opacity="0.12"/>
<stop offset="1" stop-color="#808080" stop-opacity="0.1"/>
</linearGradient>
</defs>
</svg>
