<svg width="34" height="34" viewBox="0 0 34 34" fill="none" xmlns="http://www.w3.org/2000/svg">
<path d="M33.6666 17C33.6666 7.80741 26.1926 0.333374 17 0.333374C7.80735 0.333374 0.333313 7.80741 0.333313 17C0.333313 26.1927 7.80735 33.6667 17 33.6667C26.1926 33.6667 33.6666 26.1927 33.6666 17ZM2.71963 17C2.71963 9.14109 9.14103 2.71969 17 2.71969C24.8589 2.71969 31.2803 9.14109 31.2803 17C31.2803 24.859 24.8589 31.2804 17 31.2804C9.14103 31.2804 2.71963 24.859 2.71963 17Z" fill="white"/>
<path d="M21.7369 17.8415C21.9479 17.6304 22.0877 17.3151 22.0877 16.9999C22.0877 16.6847 21.9479 16.3681 21.7369 16.1584L15.3155 9.73696C14.859 9.28054 14.0874 9.28054 13.631 9.73696C13.1745 10.1934 13.1745 10.965 13.631 11.4215L19.1752 16.9997L13.631 22.5439C13.3856 22.7893 13.2801 23.0702 13.2801 23.3855C13.2801 23.7007 13.3856 24.0173 13.631 24.227C14.0874 24.6834 14.859 24.6834 15.3155 24.227L21.7369 17.8415Z" fill="white"/>
</svg>
