<svg width="34" height="34" viewBox="0 0 34 34" fill="none" xmlns="http://www.w3.org/2000/svg">
<path d="M33.6667 17C33.6667 7.80741 26.1926 0.333374 17 0.333374C7.80738 0.333374 0.333344 7.80741 0.333344 17C0.333344 26.1927 7.80738 33.6667 17 33.6667C26.1926 33.6667 33.6667 26.1927 33.6667 17ZM2.71966 17C2.71966 9.14109 9.14106 2.71969 17 2.71969C24.859 2.71969 31.2804 9.14109 31.2804 17C31.2804 24.859 24.859 31.2804 17 31.2804C9.14106 31.2804 2.71966 24.859 2.71966 17Z" fill="#4C4981"/>
<path d="M21.7369 17.8415C21.948 17.6304 22.0878 17.3151 22.0878 16.9999C22.0878 16.6847 21.948 16.3681 21.7369 16.1584L15.3155 9.73696C14.8591 9.28054 14.0874 9.28054 13.631 9.73696C13.1746 10.1934 13.1746 10.965 13.631 11.4215L19.1752 16.9997L13.631 22.5439C13.3857 22.7893 13.2801 23.0702 13.2801 23.3855C13.2801 23.7007 13.3857 24.0173 13.631 24.227C14.0874 24.6834 14.8591 24.6834 15.3155 24.227L21.7369 17.8415Z" fill="#4C4981"/>
</svg>
